<svg xmlns="http://www.w3.org/2000/svg" fill="none" viewBox="0 0 260 70">
  <path fill="#3D435B" d="M231.509.008H28.484C12.835.008.149 11.033.149 24.633v20.73c0 13.6 12.686 24.625 28.335 24.625h203.025c15.649 0 28.334-11.025 28.334-24.625v-20.73c0-13.6-12.685-24.625-28.334-24.625Z"/>
  <path fill="#5C647B" d="M231.499 0H28.489c-7.516 0-14.725 2.595-20.04 7.214C3.136 11.832.15 18.097.15 24.629v7.281c0-6.532 2.986-12.796 8.3-17.415 5.315-4.619 12.524-7.214 20.04-7.214H231.5a32.077 32.077 0 0 1 10.847 1.873c3.44 1.237 6.564 3.051 9.197 5.338 2.632 2.288 4.72 5.003 6.144 7.992 1.424 2.988 2.157 6.192 2.156 9.426v-7.273c.002-3.235-.73-6.44-2.153-9.429-1.424-2.99-3.512-5.706-6.144-7.994-2.632-2.288-5.758-4.103-9.197-5.34A32.082 32.082 0 0 0 231.499 0Z"/>
  <g opacity=".6" style="mix-blend-mode:multiply">
    <path fill="#000" d="M231.499 62.731H110.274c-.146-1.694-1.023-3.277-2.455-4.432-1.432-1.155-3.314-1.797-5.268-1.797-1.954 0-3.836.642-5.268 1.797-1.433 1.155-2.31 2.739-2.455 4.432h-66.34c-7.51 0-14.714-2.591-20.028-7.205C3.146 50.913.157 44.655.15 38.126v7.257c0 3.234.732 6.437 2.156 9.425 1.425 2.988 3.512 5.703 6.144 7.99 2.632 2.286 5.756 4.1 9.194 5.337a32.078 32.078 0 0 0 10.845 1.873h203.01c3.721 0 7.406-.637 10.843-1.874 3.438-1.238 6.562-3.052 9.193-5.338 2.631-2.287 4.718-5.001 6.142-7.99 1.424-2.987 2.157-6.189 2.157-9.423v-7.256c-.007 6.527-2.995 12.785-8.308 17.399-5.313 4.613-12.516 7.205-20.027 7.205Z" opacity=".6" style="mix-blend-mode:multiply"/>
    <path fill="#5C647B" d="M118.155 56.33c2.367-.616 3.711-2.782 3.003-4.84-.708-2.056-3.201-3.224-5.568-2.609-2.366.616-3.711 2.782-3.002 4.839.708 2.057 3.2 3.225 5.567 2.61Zm-14.71-6.04c1.153 0 2.089-.813 2.089-1.815 0-1.003-.936-1.815-2.089-1.815-1.154 0-2.089.813-2.089 1.815s.935 1.815 2.089 1.815Z" opacity=".6" style="mix-blend-mode:multiply"/>
  </g>
</svg>
