<svg xmlns="http://www.w3.org/2000/svg" fill="none" viewBox="0 0 260 71">
  <path fill="#3D435B" d="M231.509 0H28.484C12.835 0 .149 11.03.149 24.637v20.74c0 13.606 12.686 24.636 28.335 24.636h203.025c15.649 0 28.334-11.03 28.334-24.637v-20.74C259.843 11.03 247.158 0 231.509 0Z"/>
  <path fill="#5C647B" d="M231.499 0H28.489C20.973 0 13.766 2.596 8.45 7.216 3.137 11.836.151 18.102.15 24.636v7.265c0-6.535 2.986-12.803 8.3-17.424 5.315-4.62 12.524-7.217 20.04-7.217H231.5c3.722 0 7.407.637 10.845 1.876 3.438 1.238 6.561 3.053 9.193 5.341 2.631 2.289 4.718 5.005 6.141 7.995 1.424 2.99 2.157 6.193 2.156 9.429v-7.264c0-3.236-.733-6.44-2.157-9.428-1.424-2.99-3.511-5.705-6.142-7.993-2.631-2.288-5.755-4.103-9.193-5.34A32.059 32.059 0 0 0 231.499 0Z"/>
  <g opacity=".6" style="mix-blend-mode:multiply">
    <path fill="#000" d="M231.499 62.753h-34.491a5.904 5.904 0 0 0 .281-3.136 6.31 6.31 0 0 0-1.387-2.906 7.578 7.578 0 0 0-2.753-2.042 8.71 8.71 0 0 0-3.518-.734 8.717 8.717 0 0 0-3.518.734 7.583 7.583 0 0 0-2.752 2.042 6.31 6.31 0 0 0-1.387 2.906 5.913 5.913 0 0 0 .28 3.136H28.488c-7.516 0-14.724-2.596-20.039-7.217C3.135 50.915.15 44.647.15 38.112v7.264c.001 6.535 2.988 12.801 8.302 17.421 5.315 4.62 12.522 7.216 20.037 7.216H231.5c3.721 0 7.406-.637 10.843-1.875 3.438-1.239 6.562-3.053 9.193-5.341 2.631-2.288 4.718-5.004 6.142-7.993 1.424-2.989 2.157-6.193 2.157-9.428v-7.264c0 3.236-.732 6.44-2.156 9.43-1.423 2.989-3.51 5.705-6.142 7.993-2.631 2.289-5.755 4.104-9.193 5.342a32.062 32.062 0 0 1-10.844 1.876Z" opacity=".6" style="mix-blend-mode:multiply"/>
    <path fill="#5C647B" d="M203.946 51.343c.591 0 1.169-.151 1.661-.436.491-.285.874-.69 1.101-1.165a2.28 2.28 0 0 0 .171-1.5 2.51 2.51 0 0 0-.817-1.33 3.147 3.147 0 0 0-1.53-.71 3.399 3.399 0 0 0-1.725.148 2.934 2.934 0 0 0-1.34.958c-.328.427-.502.93-.501 1.443 0 .687.314 1.347.873 1.833.559.485 1.317.758 2.107.758Zm-15.803-2.592c.825 0 1.493-.58 1.493-1.298 0-.716-.668-1.297-1.493-1.297-.824 0-1.492.58-1.492 1.297s.668 1.298 1.492 1.298Z" opacity=".6" style="mix-blend-mode:multiply"/>
  </g>
  <path fill="#5C647B" d="M44.992 15.556c3.788 0 6.858-2.669 6.858-5.962 0-3.293-3.07-5.962-6.858-5.962-3.787 0-6.857 2.67-6.857 5.962 0 3.293 3.07 5.963 6.857 5.963Zm12.732 5.784c-.43.375-.98.63-1.577.735a3.512 3.512 0 0 1-1.78-.152 3.029 3.029 0 0 1-1.383-.987 2.438 2.438 0 0 1-.52-1.488c0-.53.18-1.048.52-1.489a3.03 3.03 0 0 1 1.383-.986 3.513 3.513 0 0 1 1.78-.152c.598.104 1.147.36 1.577.734.287.248.515.543.67.868.155.325.235.673.235 1.025 0 .351-.08.7-.235 1.025-.155.324-.383.62-.67.867Z"/>
</svg>
