<svg xmlns="http://www.w3.org/2000/svg" width="237" height="237" fill="none" viewBox="0 0 237 237">
  <path fill="#3D435B" d="M153.602 0H83.398C37.338 0 0 37.338 0 83.398v70.204C0 199.661 37.338 237 83.398 237h70.204c46.06 0 83.398-37.339 83.398-83.398V83.398C237 37.338 199.662 0 153.602 0Z"/>
  <path fill="#272B3A" d="M153.597 212.484h-70.18a83.522 83.522 0 0 1-58.985-24.372A83.107 83.107 0 0 1 0 129.273v24.531a83.105 83.105 0 0 0 24.437 58.829A83.521 83.521 0 0 0 83.417 237h70.18a83.509 83.509 0 0 0 58.975-24.367A83.094 83.094 0 0 0 237 153.804v-24.489a83.092 83.092 0 0 1-24.438 58.811 83.51 83.51 0 0 1-58.965 24.358Z" opacity=".6" style="mix-blend-mode:multiply"/>
  <path fill="#5C647B" d="M153.597 0h-70.18a83.527 83.527 0 0 0-58.98 24.364A83.09 83.09 0 0 0 0 83.186v24.527a83.01 83.01 0 0 1 12.179-43.29 83.303 83.303 0 0 1 32.99-30.642v.364a20.103 20.103 0 0 0 2.025 8.882 20.154 20.154 0 0 0 5.74 7.083 20.25 20.25 0 0 0 25.524-.538 20.149 20.149 0 0 0 5.436-7.319 20.1 20.1 0 0 0-.828-17.726h70.531a83.586 83.586 0 0 1 31.92 6.334 83.418 83.418 0 0 1 27.06 18.036 83.16 83.16 0 0 1 18.078 26.992A82.987 82.987 0 0 1 237 107.727V83.186a83.076 83.076 0 0 0-24.428-58.821A83.513 83.513 0 0 0 153.597 0Z"/>
  <path fill="#5C647B" d="M101.548 80.755c7.056-1.673 11.42-8.75 9.747-15.807-1.673-7.056-8.75-11.42-15.807-9.747s-11.42 8.75-9.747 15.807 8.75 11.42 15.807 9.747Zm-37.892-.449c3.786 0 6.856-2.63 6.856-5.876 0-3.245-3.07-5.876-6.856-5.876s-6.855 2.63-6.855 5.876c0 3.245 3.07 5.876 6.855 5.876Z"/>
</svg>
