<svg xmlns="http://www.w3.org/2000/svg" width="532" height="229" fill="none" viewBox="0 0 532 229">
  <g filter="url(#a)" opacity=".8">
    <path fill="#141A3C" d="m324.912 11.757-139.491 3.696L33.816 13.58l-17.254 5.167 1.144 10.396 3.876 32.567 8.876 4.14-8.436 2.66 2.212 20.166.932 8.547-4.961 41.374 13.358 4.938-4.236 4.645 16.604 7.025-19.485 4.458 7.823 20.493-6.332 15.428 17.94 12.212 53.33-1.53 377.799 2.355 21.526-7.437 6.647-116.139-6.928-1.186 7.073-2.572.671-10.443-17.826-5.75 4.968-3.41-5.229-3.776 19.025-3.434 1.697-29.556.27-4.693-30.297-9.373-153.691.905Z"/>
  </g>
  <path fill="#394755" d="M338.713 4.787 202.877 8.43 51.841 6.514 29.879 13.2l1.235 11.397 3.873 32.978 6.422 3.046-6.184 1.98 2.285 21.046.9 8.394-4.925 41.874 9.096 4.273-2.504 4.568 8.494 5.47-10.225 3.663 8.927 22.414-6.332 15.685 20.75 14.361 57.436-1.668 372.034 2.403 25.534-8.968 6.575-117.56-2.587-.45 2.589-.958.772-12.215-16.017-5.253 4.109-2.865-3.731-2.741 16.407-3.01 1.72-30.706.322-5.67-34.331-10.802-153.81.9Z" opacity=".5"/>
  <path fill="#5C647B" d="m507.868 62.653 2.863 3.723s-17.177-5.3-17.182-5.507a4.774 4.774 0 0 1 .037-.665c.093-1.526.355-5.349.501-7.663.016-.21.026-.405.04-.587.05-.746.078-1.237.077-1.283-.006-.208 12.328-4.23 12.328-4.23l4.656 1.842-7.246 4.618 3.769 3.301-2.692 2.719.027.036 2.822 3.696Z"/>
  <path fill="#5C647B" d="m494.886 53.53-.401-.544.461.028 12.884.804 4.922 2.894-15.747.096-.638-1.274-1.481-2.004Zm21.729 12.117s-22.517-4.616-22.522-4.799c0-.027-.006-.238.058-.585l15.071-1.128 3.682 3.237 3.711 3.275Z" opacity=".21" style="mix-blend-mode:multiply"/>
  <path fill="#5C647B" d="m63.599 150.519-1.395.953-9.193 6.294-4.915-1.861 1.678-2.278-1.791-2.068.03-.023 2.487-2.835-6-5.701v-4l-.436-4.427 3.76-2.479 14.554 17.002.255.296.966 1.127Z"/>
  <path fill="#5C647B" d="m43.866 140.871 2.888-2.881-.025-.019.63.015 6.66-.041-3.516 4.592-6.637-1.666Zm28.861 6.191-.109.277-.79 2.015-24.17.148-.552-.019 6.523-2.754 18.551.325.547.008Z" opacity=".21" style="mix-blend-mode:multiply"/>
  <path fill="#5C647B" d="m519.552 15.539-.273 4.774-32.402-3.662-15.89-5.57-209.373 6.034L70.737 12.43l-22.923 3.432-9.212 8.602L37.47 14.03l17.427-5.305 148.213 1.878 135.995-3.65 150.339-.885 13.805 4.343 16.304 5.128Z"/>
  <path fill="#1A1C23" d="m515.396 84.333-6.172 110.456.065 2.496-20.339 6.654-368.07-1.974-57.28 1.31-15.998-12 7.375-15.861.149-.051 5.787 13.115 18.308 6.831 27.232.381 52.688 2.417 167.622 2.626c18.732-.845 128.135-3.89 128.135-3.89l36.064-7.89 14.278-32.414-4.725-20.064 14.881-52.142Z" style="mix-blend-mode:darken"/>
  <path fill="#5C647B" d="m515.771 83.02-6.277 112.171-21.522 7.56-368.835-2.377-52.64 1.531-17.858-12.375 6.19-15.34.148-.05 5.794 13.127 18.329 6.838 27.262.381 52.748 2.42 167.812 2.628c18.754-.846 128.281-3.894 128.281-3.894l36.106-7.898 14.294-32.445-4.731-20.084 14.899-52.194ZM52.285 79.138l-8.92-10.694.955 8.799 1.588 14.715 18.157-10.016-11.78-2.804Z"/>
  <path fill="#5C647B" d="m64.064 81.942-18.979 2.4 1.074 7.581 17.905-9.98Zm-11.578-2.854-7.72 2.33-1.642-13.059 9.362 10.73Zm460.586 52.199-12.205 3.926 4.503 18.989 6.424-.039 1.278-22.876Zm-4.583 64.207-17.157-7.755-36.125 8.081-128.285 3.711.056 2.183 161.114 1.036 20.397-7.256Z" opacity=".21" style="mix-blend-mode:multiply"/>
  <path fill="#5C647B" d="m455.202 195.638 32.89 7.113-161.113-1.026-.057-2.194 128.28-3.893Zm-388.624 6.033 12.521-7.572 31.485.575 11.652 5.721-55.658 1.276Z" opacity=".21" style="mix-blend-mode:multiply"/>
  <path fill="#5C647B" d="m60.755 187.265-12.054 2.267 17.876 12.139 55.684-1.254-11.659-5.779-31.503-.538-18.344-6.835Z" opacity=".21" style="mix-blend-mode:multiply"/>
  <path fill="#5C647B" d="m113.952 197.36-9.493-6.874 9.138-6.756-9.445-5.027 17.221 5.672-6.562 6.279 18.82 7.511M388.636 11.402l14.475 6.607-6.939 8.226 10.596 4.15-4.877-4.185 10.273-8.247-7.799-6.647"/>
  <path fill="#5C647B" d="m503.248 10.41-16.371 6.24-15.89-5.569-209.373 6.034L70.737 12.43l-22.923 3.432-9.212 8.602L37.47 14.03l17.427-5.305 148.213 1.878 135.995-3.65 150.339-.885 13.805 4.343Z" opacity=".21" style="mix-blend-mode:multiply"/>
  <path fill="#5C647B" d="M70.737 12.431 54.895 8.69 37.47 14.098l10.343 1.765 22.923-3.432Z"/>
  <path fill="#5C647B" d="m221.463 10.048 40.15 7.067 112.742-3.249-39.124-6.89-113.768 3.072Zm172.709 60.89c10.226-.063 18.45-2.616 18.37-5.703-.08-3.087-8.435-5.539-18.661-5.476-10.226.062-18.451 2.615-18.371 5.703.081 3.087 8.436 5.538 18.662 5.476Zm45.924-4.531c2.98-.44 3.844-1.773 1.931-2.977-1.914-1.203-5.881-1.822-8.861-1.381-2.98.44-3.844 1.773-1.93 2.976 1.913 1.204 5.88 1.823 8.86 1.382Z" opacity=".21" style="mix-blend-mode:multiply"/>
  <g style="mix-blend-mode:darken">
    <path fill="#5C647B" d="M222.25 163.119c3.989-8.501-4.683-17.187-19.368-19.4-14.686-2.213-29.825 2.884-33.814 11.385-3.989 8.501 4.682 17.187 19.368 19.4 14.686 2.213 29.825-2.884 33.814-11.385Zm-41.045-35.684c4.626-5.851 2.303-12.165-5.189-14.103-7.493-1.937-17.317 1.235-21.943 7.086-4.626 5.85-2.303 12.164 5.19 14.102 7.492 1.938 17.316-1.234 21.942-7.085Zm-57.1 27.776c2.754-3.485 8.612-5.376 13.076-4.221 4.464 1.156 5.872 4.916 3.095 8.404-2.778 3.488-8.612 5.368-13.081 4.224-4.469-1.144-5.824-4.919-3.09-8.407Z" opacity=".21" style="mix-blend-mode:multiply"/>
  </g>
  <path fill="#91A3BA" d="M75.338 55.774c5.712-1.18 9.2-5.844 7.791-10.42-1.409-4.575-7.181-7.328-12.893-6.149-5.712 1.18-9.2 5.844-7.79 10.42 1.408 4.575 7.18 7.328 12.892 6.149Zm31.291 2.653c4.071-.058 7.344-3.114 7.31-6.825-.034-3.712-3.361-6.674-7.432-6.616-4.071.058-7.344 3.113-7.31 6.825.033 3.712 3.361 6.674 7.432 6.616ZM476.192 167.53c2.886-.037 5.205-1.962 5.181-4.299-.024-2.336-2.383-4.201-5.269-4.164-2.885.037-5.205 1.961-5.181 4.298.024 2.337 2.383 4.202 5.269 4.165Zm-21.017 18.742c4.984-.064 8.99-3.388 8.948-7.425-.042-4.037-4.116-7.258-9.099-7.195-4.984.064-8.99 3.389-8.948 7.426.042 4.037 4.116 7.258 9.099 7.194Z" opacity=".46" style="mix-blend-mode:lighten"/>
  <path fill="#5C647B" d="M98.18 74.21c2.035-.437 3.261-2.111 2.739-3.741-.522-1.63-2.595-2.597-4.63-2.16-2.034.436-3.26 2.11-2.738 3.74.522 1.63 2.595 2.597 4.63 2.16Zm-11.074.258c.98-.014 1.77-.663 1.763-1.451-.007-.788-.808-1.415-1.79-1.401-.98.014-1.77.664-1.762 1.451.007.788.808 1.415 1.789 1.401Zm176.352 61.908a2.661 2.661 0 0 1-1.336.693 2.782 2.782 0 0 1-1.52-.125 2.612 2.612 0 0 1-1.191-.9 2.36 2.36 0 0 1-.035-2.752c.284-.411.69-.732 1.168-.925a2.78 2.78 0 0 1 1.516-.156c.511.091.982.322 1.354.665.496.46.78 1.086.788 1.742a2.402 2.402 0 0 1-.744 1.758Z"/>
  <defs>
    <filter id="a" width="510.338" height="217.769" x=".562" y="10.852" color-interpolation-filters="sRGB" filterUnits="userSpaceOnUse">
      <feFlood flood-opacity="0" result="BackgroundImageFix"/>
      <feColorMatrix in="SourceAlpha" result="hardAlpha" values="0 0 0 0 0 0 0 0 0 0 0 0 0 0 0 0 0 0 127 0"/>
      <feOffset dx="-7" dy="11"/>
      <feGaussianBlur stdDeviation="4.5"/>
      <feComposite in2="hardAlpha" operator="out"/>
      <feColorMatrix values="0 0 0 0 0 0 0 0 0 0 0 0 0 0 0 0 0 0 0.4 0"/>
      <feBlend in2="BackgroundImageFix" result="effect1_dropShadow_248_2"/>
      <feBlend in="SourceGraphic" in2="effect1_dropShadow_248_2" result="shape"/>
    </filter>
  </defs>
</svg>
