<svg xmlns="http://www.w3.org/2000/svg" fill="none" viewBox="0 0 481 450">
  <g filter="url(#a)" opacity=".8">
    <path fill="#141A3C" d="m297.089 14.522-127.171 5.973L31.842 14.61 16 25.245l.796 21.85 2.758 68.461 7.988 8.811-7.749 5.478 1.537 42.388.647 17.966-5.502 86.844 12.053 10.544-3.97 9.703 14.96 14.97-17.858 9.114 6.642 43.147-6.135 32.326L38.22 422.73l48.623-2.528L430.983 430l19.788-15.345 8.812-243.871-6.284-2.581 6.505-5.311.859-21.927-16.104-12.309 4.607-7.096-4.674-8.001 17.415-6.97 2.246-62.062.358-9.854-27.38-20.077-140.042-.074Z"/>
  </g>
  <path fill="#394755" d="m309.828.043-123.84 5.916L48.431 0 28.264 13.763l.856 23.957 2.748 69.32 5.778 6.481-5.68 4.08 1.583 44.238.622 17.644-5.479 87.895 11.129 9.898-3.793 9.428 12.504 12.723-15.076 7.823 6.841 45.143-6.14 32.866 18.566 30.431 52.365-2.769 338.887 9.809 23.475-18.51 8.773-246.857-2.347-.98 2.382-1.98.993-25.648-14.468-11.239 3.811-5.966-3.334-5.805 15.018-6.113 2.294-64.476.428-11.909L449.978.12 309.828.043Z" opacity=".5"/>
  <path fill="#5C647B" d="m467.15 123.272 3.312 6.911s-20.405-9.984-20.405-10.368c0-.058.001-.5.067-1.228.158-2.818.591-9.877.838-14.15.026-.387.044-.749.066-1.084.084-1.378.132-2.284.132-2.37 0-.384 14.896-7.675 14.896-7.675l5.518 3.457-8.822 8.449 4.411 6.14-3.308 4.992.031.067 3.264 6.859Z"/>
  <path fill="#5C647B" d="m450.953 104.452-.353-1.148.42.064 11.719 1.855 4.415 6.143h-14.348l-.551-2.686-1.302-4.228Zm19.509 25.731s-20.405-9.984-20.405-10.368c0-.058.001-.5.067-1.228l13.757-2.177 3.277 6.847 3.304 6.926Z" opacity=".21" style="mix-blend-mode:multiply"/>
  <path fill="#5C647B" d="m65.506 298.383-2.254 1.919L48.4 312.976l-7.723-3.841 2.757-4.608-2.757-4.225.048-.046 6.008-5.701.013-.013-8.826-12.289.057-.129 2.7-6.015-.022-.04-5.496-10.327 6.07-4.992 22.398 34.726.392.605 1.487 2.302Z"/>
  <path fill="#5C647B" d="m37.977 282.124 2.7-6.015-.023-.039.574.039h6.07l-3.314 9.601-6.007-3.586Zm26.148 13.377-.106.58-.768 4.221H41.228l-.503-.046 6.008-5.701 16.893.921.499.025Z" opacity=".21" style="mix-blend-mode:multiply"/>
  <path fill="#5C647B" d="m474.327 24.966-.362 10.024-29.434-8.108-14.344-11.903-190.893 9.984-173.788-12.29-20.965 6.915-8.597 17.95-.785-21.932L51.16 4.686l134.986 5.848L310.132 4.61l136.988.074 12.474 9.3 14.733 10.981Z"/>
  <path fill="#1A1C23" d="m468.908 169.418-8.245 231.942v5.244l-18.688 13.715-335.283-8.874-52.217 2.016-14.29-25.412 7.095-33.223.137-.104 4.96 27.623 16.518 14.584 24.8 1.15 47.945 5.754 152.65 7.668c17.086-1.534 116.831-6.524 116.831-6.524l33.043-16.112 13.778-67.903-3.829-42.207 14.795-109.337Z" style="mix-blend-mode:darken"/>
  <path fill="#5C647B" d="m469.28 166.665-8.381 235.544-19.787 15.602-335.971-9.729-47.994 2.539-15.977-26.225 6.004-32.141.136-.104 4.967 27.649 16.536 14.599 24.829 1.151 47.999 5.76 152.823 7.675c17.106-1.535 116.963-6.53 116.963-6.53l33.082-16.128 13.792-67.969-3.833-42.249 14.812-109.444ZM47.112 152.558 39.24 129.98l.662 18.495L41 179.406 57.778 158.6l-10.666-6.042Z"/>
  <path fill="#5C647B" d="m57.777 158.6-17.348 4.796.799 15.94 16.55-20.736Zm-10.48-6.143-7.089 4.792-1.186-27.45 8.275 22.658Zm418.379 115.562-11.212 8.09 3.652 39.946h5.853l1.707-48.036Zm-5.698 134.813-15.447-16.511-33.104 16.511-116.963 6.147v4.587l146.759 4.246 18.755-14.98Z" opacity=".21" style="mix-blend-mode:multiply"/>
  <path fill="#5C647B" d="m411.427 402.448 29.796 15.363-146.759-4.224v-4.608l116.963-6.531ZM57.226 410.13l11.588-15.744 28.67 1.612 10.48 12.167-50.738 1.965Z" opacity=".21" style="mix-blend-mode:multiply"/>
  <path fill="#5C647B" d="m52.263 379.794-11.036 4.608 15.998 25.728 50.761-1.919-10.485-12.289-28.688-1.535-16.55-14.593Z" opacity=".21" style="mix-blend-mode:multiply"/>
  <path fill="#5C647B" d="M102.024 401.819 92.091 390.3l9.933-11.136-9.933-8.449 18.208 9.601-7.172 10.368 19.862 12.673M355.153 14.595l16.554 10.368-8.279 12.674 12.139 6.527-5.518-6.527 12.139-12.674-8.827-10.368"/>
  <path fill="#5C647B" d="m459.594 13.985-15.063 12.897-14.344-11.903-190.893 9.984-173.788-12.29-20.965 6.915-8.597 17.95-.785-21.932L51.16 4.686l134.986 5.848L310.132 4.61l136.988.074 12.474 9.3Z" opacity=".21" style="mix-blend-mode:multiply"/>
  <path fill="#5C647B" d="M65.506 12.674 51.16 4.61l-16 11.137 9.382 3.84 20.965-6.913Z"/>
  <path fill="#5C647B" d="m202.882 9.603 36.412 15.36 102.79-5.375L306.603 4.61 202.882 9.603Zm155.902 130.122c9.318 0 16.871-5.258 16.871-11.743 0-6.486-7.553-11.744-16.871-11.744-9.318 0-16.872 5.258-16.872 11.744 0 6.485 7.554 11.743 16.872 11.743Zm41.947-8.927c2.725-.887 3.544-3.676 1.829-6.229s-5.314-3.903-8.04-3.016c-2.725.887-3.544 3.675-1.829 6.228s5.314 3.903 8.04 3.017Z" opacity=".21" style="mix-blend-mode:multiply"/>
  <g style="mix-blend-mode:darken">
    <path fill="#5C647B" d="M185.957 344.808c3.733-9.295-4.066-18.937-17.419-21.535-13.354-2.599-27.206 2.829-30.94 12.124-3.734 9.295 4.065 18.937 17.419 21.535 13.354 2.599 27.206-2.829 30.94-12.124Zm-36.978-39.673c4.283-6.376 2.24-13.339-4.564-15.553-6.803-2.215-15.79 1.159-20.074 7.535-4.283 6.376-2.24 13.339 4.564 15.553 6.803 2.215 15.79-1.159 20.074-7.535Zm-52.347 29.869c2.55-3.798 7.909-5.809 11.963-4.489 4.053 1.321 5.293 5.468 2.721 9.269s-7.909 5.8-11.967 4.492c-4.058-1.308-5.249-5.471-2.717-9.272Z" opacity=".21" style="mix-blend-mode:multiply"/>
  </g>
  <path fill="#91A3BA" d="M72.07 48.926c6.223-1.036 10.063-5.387 8.576-9.72-1.487-4.332-7.739-7.004-13.963-5.97-6.225 1.036-10.065 5.388-8.577 9.72 1.487 4.332 7.739 7.005 13.963 5.97Zm34.007 2.919c4.428 0 8.019-2.837 8.019-6.336 0-3.5-3.591-6.337-8.019-6.337-4.429 0-8.02 2.837-8.02 6.337 0 3.5 3.591 6.336 8.02 6.336Zm-32.553 27.65c7.649 0 13.85-4.9 13.85-10.945s-6.201-10.945-13.85-10.945c-7.65 0-13.85 4.9-13.85 10.945s6.2 10.945 13.85 10.945Zm319.382 273.58c4.178 0 7.565-2.358 7.565-5.266s-3.387-5.265-7.565-5.265c-4.178 0-7.565 2.357-7.565 5.265 0 2.908 3.387 5.266 7.565 5.266Zm23.964 1.753c2.892 0 5.236-1.852 5.236-4.136s-2.344-4.135-5.236-4.135c-2.891 0-5.235 1.851-5.235 4.135s2.344 4.136 5.235 4.136Zm-21.252 18.052c4.994 0 9.043-3.198 9.043-7.144s-4.049-7.144-9.043-7.144c-4.993 0-9.042 3.198-9.042 7.144s4.049 7.144 9.042 7.144Z" opacity=".46" style="mix-blend-mode:lighten"/>
  <path fill="#5C647B" d="M114.517 85.927c2.218-.384 3.568-1.947 3.016-3.49-.553-1.544-2.798-2.483-5.015-2.1-2.217.385-3.567 1.948-3.015 3.491.552 1.543 2.797 2.483 5.014 2.099Zm-12.049.095c1.067 0 1.932-.602 1.932-1.345 0-.742-.865-1.344-1.932-1.344s-1.932.602-1.932 1.344c0 .743.865 1.345 1.932 1.345ZM224.592 316.11c-.399.278-.906.467-1.459.544a4.016 4.016 0 0 1-1.647-.113c-.521-.15-.966-.404-1.279-.73-.314-.326-.481-.71-.481-1.102 0-.393.167-.776.481-1.102.313-.327.758-.581 1.279-.731a4.016 4.016 0 0 1 1.647-.112c.553.076 1.06.266 1.459.543.532.373.831.876.831 1.402 0 .525-.299 1.029-.831 1.401Zm-109.558-75.546c2.223-.367 3.598-1.919 3.071-3.467-.528-1.547-2.757-2.504-4.981-2.137-2.223.367-3.598 1.919-3.071 3.466.527 1.548 2.757 2.505 4.981 2.138Zm-12.015.089c1.067 0 1.932-.602 1.932-1.345s-.865-1.345-1.932-1.345-1.931.602-1.931 1.345.864 1.345 1.931 1.345Z"/>
  <defs>
    <filter id="a" width="466.511" height="435.478" x="0" y="14.522" color-interpolation-filters="sRGB" filterUnits="userSpaceOnUse">
      <feFlood flood-opacity="0" result="BackgroundImageFix"/>
      <feColorMatrix in="SourceAlpha" result="hardAlpha" values="0 0 0 0 0 0 0 0 0 0 0 0 0 0 0 0 0 0 127 0"/>
      <feOffset dx="-7" dy="11"/>
      <feGaussianBlur stdDeviation="4.5"/>
      <feComposite in2="hardAlpha" operator="out"/>
      <feColorMatrix values="0 0 0 0 0 0 0 0 0 0 0 0 0 0 0 0 0 0 0.4 0"/>
      <feBlend in2="BackgroundImageFix" result="effect1_dropShadow_36_142"/>
      <feBlend in="SourceGraphic" in2="effect1_dropShadow_36_142" result="shape"/>
    </filter>
  </defs>
</svg>
