<svg xmlns="http://www.w3.org/2000/svg" fill="none" viewBox="0 0 1080 1080">
  <path fill="#394755" fill-opacity=".8" d="m90.817 62.663 407.116-47.236L960.366 30.93l70.314 62.115 34.53 350.685-45.56 527.272-45.421 45.837-580.816 41.41-319.1-29.87-29.256-19.02 12.349-54.832c-4.396-158.713-6.84-401.31-7.168-435.325 5.122-.975 4.662-4.43 4.662-4.43l-4.863-3.029c-1.438-30.439-11.98-255.819-16.106-404.761l56.886-44.32Z" opacity=".8"/>
  <path fill="#394755" fill-opacity=".8" d="m90.817 62.663 407.116-47.236L960.366 30.93l70.314 62.115 34.53 350.685-45.56 527.272-45.421 45.837-580.816 41.41-319.1-29.87-29.256-19.02 12.349-54.832c-4.396-158.713-6.84-401.31-7.168-435.325 5.122-.975 4.662-4.43 4.662-4.43l-4.863-3.029c-1.438-30.439-11.98-255.819-16.106-404.761l56.886-44.32Z" opacity=".8"/>
  <path fill="#565E75" d="m93.698 78.545-2.881-15.882 407.116-47.236L960.366 30.93l-7.391 13.282-454.421-14.108-404.856 48.44Z"/>
  <path fill="#C5BFE1" d="m128.411 74.07-72.828 39.276 38.114-34.802 34.714-4.474Z"/>
  <path fill="#565E75" d="m93.698 78.545-2.881-15.882-56.886 44.321 21.653 6.363 38.114-34.802Zm-38.114 34.802-21.653-6.364 15.912 401.888c2.842 2.388 8.126 1.992 9.756 5.486 1.569 5.212-3.317 10.781-9.104 8.867.69 53.801 6.91 431.303 6.91 431.303l9.448-6.448 6.887-445.134-18.156-389.598Z"/>
  <path fill="#182145" d="m97.727 1017.89-23.413 10.49 320.249 29.91 579.666-41.45-20.136-16.46-555.631 45.63-300.735-28.12Z"/>
  <path fill="#253B47" d="m45.057 1009.36 14.292-13.05 38.379 21.58-23.414 10.49-29.257-19.02Z"/>
  <path fill="#43403E" d="m974.229 1016.84-20.136-16.46 51.217-46.769 14.34 17.393-45.421 45.836Z"/>
  <path fill="#BCB39D" d="m1004.12 954.698 15.53 16.306 45.56-527.273-34.53-350.685-3.86 11.146 25.29 351.502-47.99 499.004Z"/>
  <path fill="#E7DECA" d="M1030.68 93.046 960.366 30.93l-7.391 13.283 73.845 59.978 3.86-11.145Z"/>
  <path fill="#545C75" d="m66.853 948.079-9.447 6.449-12.35 54.832 14.294-13.049 7.503-48.232Z"/>
  <path fill="#C5BFE1" d="m919.421 1003.72 66.831-32.709-32.159 29.369-34.672 3.34Z"/>
</svg>
